<?xml version="1.0" encoding="UTF-8"?>
<svg id="Layer_1" xmlns="http://www.w3.org/2000/svg" version="1.1" viewBox="0 0 106.2 63.01">
  <!-- Generator: Adobe Illustrator 30.1.0, SVG Export Plug-In . SVG Version: 2.1.1 Build 136)  -->
  <g id="fxyvNJ">
    <g>
      <path d="M51.96,21.89c.11-.06.22-.16.34-.07l-3.04,5.28c-.59,1.02-1.59,1.68-2.78,1.72-1.11.03-2.26-.49-2.82-1.45l-7.28-12.59c-.21-.36-.26-.76-.33-1.14-.04-.24-.02-.41,0-.66.13-1.45,1.25-2.69,2.72-2.88s2.71.45,3.44,1.75l1.19,2.08,2.14,3.71,1.75,3.01c.58.99,1.54,1.63,2.7,1.67.63.02,1.41-.12,1.99-.43Z"/>
      <path d="M65.47,21.89l-3.13,5.38c-.56.96-1.59,1.49-2.67,1.54s-2.27-.5-2.8-1.43l-7.15-12.34c-.35-.6-.52-1.19-.49-1.88.06-1.54,1.2-2.88,2.76-3.08.31-.04.65-.03.96,0,1.02.12,1.88.75,2.39,1.63l3.31,5.77,1.94,3.31c.55.93,1.51,1.44,2.57,1.51.7.05,1.56-.17,2.18-.52.03-.02.09-.02.11-.01.02,0,.05.06.02.1Z"/>
      <path d="M29.62,19.3c-.6.63-.95,1.37-1.15,2.19-.12.51-.08.95-.08,1.47,0,2.6,2.16,4.57,4.72,4.3.79-.08,1.56-.35,2.15-.88.32-.29.58-.59.78-.97.03-.06.08-.09.11-.11.1-.04.96.41,1.15.5.08.04.33.1.28.22-.42.91-1.14,1.62-2.02,2.1-1.05.57-2.11.77-3.29.71-1.57-.09-2.99-.77-4.05-1.93-1.24-1.36-1.75-3.12-1.56-4.94.29-2.86,2.57-5.34,5.51-5.46,2.01-.08,3.79.61,4.9,2.32.58.91.92,1.92.98,2.98l.04.77-.02.47c0,.09-.07.19-.18.19h-5.47s-.21-.04-.21-.04c-.76-.15-1.27-.39-1.17-1.49h5.15c.11,0,.08-.17.07-.23-.14-1.02-.59-1.96-1.37-2.63-.6-.52-1.33-.74-2.11-.8-1.2-.1-2.33.37-3.17,1.25Z"/>
      <path d="M74.54,22.91c-.67.6-1.46-.06-3.11.65-.77.33-1.1.96-1.05,1.78.07,1.19,1.09,1.79,2.17,1.91,1.54.17,3.08-.6,3.75-2.04.17-.36.29-.74.3-1.15.03-1.2.04-2.39,0-3.6-.02-.63-.29-1.24-.72-1.65-.77-.75-2.09-.86-3.07-.68s-1.73.8-2.11,1.69c-.03.06-.1.14-.18.11l-1.41-.45c-.05-.02-.1-.05-.11-.08-.01-.04-.01-.1.02-.15.49-.99,1.28-1.81,2.28-2.29,1.26-.61,3.13-.6,4.44-.15.91.31,1.87,1.18,2.23,2.06.22.53.37,1.11.37,1.72l.02,7.89c0,.35-.8.1-1.27-.39-.64-.67-.34-1.17-.47-1.33-.02-.02-.1-.03-.13.01-1.03,1.5-2.53,2.2-4.36,2.05-.9-.08-1.73-.36-2.4-.96-.78-.69-1.19-1.65-1.09-2.7-.08-1.09.45-2.06,1.39-2.6.85-.49,1.79-.8,2.78-.81l2.12-.02c.29,0,.07.76-.39,1.17Z"/>
      <path d="M91.97,17.16l-7.26,15.8c-.43.94-1.25,1.62-2.3,1.75-.13.02-.26.08-.4-.03l2.94-6.38c.08-.18.1-.3,0-.48-.19-.35-.36-.71-.53-1.08l-.76-1.55-3.95-8.1c-.03-.05-.02-.1-.01-.12s.06-.07.12-.06c1.27.1,2.24.82,2.79,1.97l3.3,6.98c.04.08.04.12.11.12s.09-.03.13-.11l3.93-8.73c.05-.12.12-.24.25-.24h1.53c.06,0,.11.02.14.04.05.05.04.1-.01.21Z"/>
      <path d="M22.13,18.99c-1.01-.88-2.87-.89-3.96-.22s-1.72,1.8-1.73,3.06l-.04,5.51c0,1.12-1.71,1.79-1.71,1.37v-11.8s1.57-.01,1.57-.01c.09,0,.16.07.16.16v1.76s.15-.02.17-.05c.96-1.56,2.6-2.24,4.4-2.09,1.04.09,2.05.45,2.78,1.22.3.32.55.67.74,1.08.28.62.49,1.3.5,2.01l.02,7.68c0,.13-.1.17-.2.16-.89-.1-1.56-.83-1.56-1.74l-.02-5.79c0-.26-.08-.51-.14-.74-.16-.62-.49-1.15-.97-1.57Z"/>
      <path d="M66.81,19.07s-.07.05-.09.04-.05-.04-.06-.08c-.23-3.31-2.6-5.51-2.19-7.23.21-.89.92-1.56,1.84-1.7.3-.05.64-.04.95,0,1.34.16,2.24,1.29,2.24,2.6,0,.58,0,.85-.14,1.45-.28,1.18-.77,2.28-1.39,3.32-.35.58-.7,1.11-1.15,1.6Z"/>
      <path d="M21.35,47.61c-.04,1.38.92,2.49,2.31,2.43.34-.01.69-.05.98-.24.7-.47.87-1.21.99-1.25.07-.02.51.13.53.25-.26.83-.94,1.51-1.78,1.74-.96.26-1.96.05-2.7-.57s-.99-1.41-.98-2.32c0-1.41.99-2.63,2.42-2.84.32-.05.68-.05,1,0,.95.16,1.7.81,2,1.71.03.1-.06.2-.16.2-.58-.01-.53-.4-1.06-.88-.88-.79-2.33-.56-3.05.35-.32.41-.48.9-.5,1.41Z"/>
      <path d="M40.42,50.26c-.31.23-.62.29-.98.31-1.07.04-1.3-.68-1.48-.66-.14.01.04.45-.13.57-.13.09-.34.04-.52.01v-5.93c.33-.02.58.23.59.53l.03,2.16c.15,0,.17-.1.23-.17.63-.7,1.68-.74,2.39-.12.97.85.94,2.5-.12,3.3ZM39.78,49.95c.57-.23.83-.8.84-1.37,0-.5-.16-.93-.55-1.25-.48-.39-1.16-.36-1.64.03-.36.29-.53.71-.54,1.18,0,.63.33,1.24.95,1.44.28.09.64.09.94-.02Z"/>
      <path d="M67.32,34.78c-.78.06-1.48-.3-1.86-.94-.33-.56-.38-1.19-.17-1.8.26-.76.92-1.25,1.72-1.31,1.14-.1,2.09.72,2.16,1.86s-.7,2.11-1.85,2.19ZM67.93,33.97c.8-.56.83-1.7.12-2.33-.42-.37-1.01-.44-1.51-.19-.46.22-.75.73-.75,1.27,0,.45.14.84.49,1.15.45.4,1.12.48,1.65.1Z"/>
      <path d="M62.06,34.24c-.83.77-2.13.73-2.87-.1-.48-.54-.63-1.26-.44-1.94.23-.84.93-1.42,1.81-1.47.99-.06,1.88.57,2.08,1.57.13.65-.04,1.45-.57,1.94ZM62.05,32.66c-.06-.92-.89-1.55-1.76-1.32-.6.16-1,.72-1.01,1.38-.01.84.64,1.56,1.5,1.48.77-.07,1.31-.76,1.26-1.54Z"/>
      <path d="M53.86,47.41c-.54-.56-1.41-.47-1.9.13-.33.41-.4.94-.27,1.47.14.58.65.99,1.23,1.03.53.03.96-.15,1.23-.62.19.02.37.09.49.26-.37.72-1.17.98-1.95.86-.93-.13-1.59-.94-1.64-1.86-.02-.41.06-.78.24-1.14.55-1.04,1.89-1.37,2.83-.65.49.37.68,1,.67,1.58,0,.07.02.12,0,.16-.03.06-.08.1-.17.1h-1.73c-.2,0-.42-.2-.4-.39.01-.15.19-.11.28-.1.42.02.82,0,1.24,0,.37,0,.04-.64-.15-.84Z"/>
      <path d="M29.83,48.19c.12-.08-.1-.79-.64-1.03-.41-.19-.83-.15-1.2.08-.47.28-.7.81-.69,1.35.01.77.53,1.42,1.31,1.46.52.03.96-.16,1.22-.62.2.01.37.1.5.24-.34.66-1,.93-1.71.91-.57-.02-1.05-.25-1.43-.7-.51-.6-.61-1.47-.28-2.2.3-.68.93-1.12,1.67-1.16.82-.04,1.56.42,1.79,1.2.06.19.27,1.02-.05,1.02h-1.78c-.21,0-.41-.24-.35-.43.04-.13.22-.06.31-.06h1.21c.05,0,.1-.04.13-.06Z"/>
      <path d="M34.02,47.21c-.49.27-.71.77-.73,1.29-.03.78.47,1.49,1.26,1.54,1,.07,1.13-.55,1.29-.6.12-.04.48.16.43.27-.24.47-.73.8-1.27.85-.76.06-1.34-.07-1.85-.7-.65-.8-.59-1.98.1-2.73.44-.48,1.05-.67,1.69-.58,1.03.14,1.55,1.01,1.52,2,0,.1-.05.2-.17.2h-1.76c-.25-.01-.42-.24-.37-.48h1.48c.08,0,.16-.05.18-.09.1-.16-.19-.81-.66-1.01-.39-.18-.79-.15-1.15.05Z"/>
      <path d="M81.18,47.51c-.43.52-.48,1.26-.17,1.84.25.47.74.7,1.25.69.84-.02.93-.57,1.12-.61.09-.02.39.14.41.22.05.23-.6.83-1.24.89-.22.02-.47.03-.69,0-1.26-.19-1.96-1.55-1.49-2.77.43-1.13,1.71-1.6,2.78-.99.24.14.45.37.58.61s.49,1.34.11,1.34h-1.76c-.24,0-.45-.23-.4-.47l1.52-.02c.39,0,.01-.68-.16-.85-.51-.53-1.37-.48-1.86.11Z"/>
      <path d="M64.19,50.34c-.78.48-1.76.38-2.45-.21-.39-.34-.62-.83-.66-1.34-.1-1.16.74-2.13,1.88-2.21s2.11.73,2.17,1.87c.04.77-.26,1.47-.94,1.89ZM63.96,49.82c.35-.27.53-.66.56-1.08.07-.92-.64-1.72-1.56-1.64-.38.03-.68.21-.92.5-.48.57-.47,1.42,0,1.99.5.6,1.3.71,1.93.23Z"/>
      <path d="M46.5,48.52c-.29.44-1.06,0-1.4.59-.07.13-.07.37-.02.5.22.55,1.07.48,1.36.31.37-.22.63-.58.63-1.02,0-.79.18-1.7-.75-1.84-.44-.07-.88.06-1.12.46-.16.27-.56-.02-.53,0-.23-.23.41-.73.6-.83.53-.26,1.17-.25,1.7.01.39.2.66.62.66,1.06l.02,2.58c0,.07-.05.12-.08.14-.06.03-.13.01-.18-.03-.36-.28-.26-.43-.37-.46s-.48.69-1.31.55c-.35.05-.68-.08-.92-.3-.44-.4-.51-1.34.08-1.7.71-.43,1.08-.23,1.43-.31.09-.02.17,0,.22.04.06.06.05.16,0,.24Z"/>
      <path d="M60.77,46.73l-2.4,5.21c-.26.56-.95.68-.83.43l.94-2.05-1.67-3.43c-.03-.06-.05-.09-.04-.14.01-.05.09-.08.15-.07.47.08.69.44.88.84l.91,1.94s.07.08.1.09c.05.01.08-.05.11-.1l1.13-2.54c.07-.16.16-.25.35-.22.11.02.23-.05.37.05Z"/>
      <path d="M69.36,46.79v3.71c-.06.09-.48.08-.54.02-.13-.12.09-.32-.12-.51-.34.45-.82.66-1.36.64-.71-.02-1.29-.51-1.36-1.23,0-.1-.05-.21-.05-.31v-2.3c0-.06.03-.11.05-.12.22-.15.53.28.53.41l.03,2.04c0,.35.23.66.47.81.34.21.7.22,1.04.07.5-.21.71-.69.73-1.22.02-.49.03-.97,0-1.46-.02-.31.06-.56.37-.68.06-.02.21-.02.21.13Z"/>
      <path d="M77.77,34.79c-.97-.03-1.51-.97-1.33-1.22.15-.2.5,0,.63.19s.29.33.53.41c.34.12.75-.02.93-.35.06-.1.05-.29,0-.38-.29-.62-1.22-.25-1.79-.88-.24-.27-.3-.64-.2-1.01.07-.28.33-.57.65-.71.69-.29,1.67-.07,1.91.77.02.08,0,.18-.08.21-.22.07-.45-.02-.57-.2-.28-.39-.95-.45-1.27-.05-.11.13-.13.34-.04.52.18.34.75.28,1.25.46.34.12.6.39.7.68.14.39.07.79-.17,1.08-.29.35-.69.5-1.17.49Z"/>
      <path d="M54.36,32.78c.08-.23.64.07,1.06-.27.2-.16.31-.41.23-.67-.2-.65-.95-.49-1.55-.48v3.17c0,.07-.04.13-.07.16-.06.07-.49.09-.54-.06v-3.78c0-.14.27-.1.37-.09l1.35.02c.19,0,.37.11.51.2.4.24.57.63.55,1.09s-.32.88-.76,1.05c-.24.09-.51.16-.76.14s-.48-.26-.4-.5Z"/>
      <path d="M78.96,47.45v3.02c-.02.13-.51.13-.6.03-.05-.07-.01-.14-.01-.23v-2.89c0-.34-.49-.13-.67-.23-.13-.08-.13-.4,0-.47.17-.09.37.01.55-.04.21-.06.09-.6.14-1.03.06-.54.44-.94.98-1,.19-.02.44-.05.6.08.12.09.08.37-.03.47-.41-.14-.94.04-.95.48l-.02.68c0,.1-.04.31.1.32l.83.03c.09,0,.06.2.02.26-.34.46-.69.11-.92.31-.07.06-.01.12-.01.22Z"/>
      <path d="M50.47,50.07c.11.07.11.38,0,.45-.15.09-.33.02-.5.04-.49.05-.98-.26-.99-.78l-.03-2.43c0-.32-.47-.08-.65-.21-.09-.07-.1-.36-.02-.44.18-.15.66.14.68-.25.01-.3-.02-.6.02-.91.27-.05.47.16.55.39.09.26,0,.58.07.68.08.11.64,0,.88.07.12.03.02.19-.02.26-.23.38-.88.17-.88.3v2.48c0,.24.36.34.55.34.12,0,.23-.04.34.03Z"/>
      <path d="M75.33,50.52c-.21.06-.39.05-.6,0v-5.86c.19-.13.42-.13.6,0v5.85Z"/>
      <path d="M31.93,50.52c-.21.06-.39.05-.61,0v-5.85c.18-.13.42-.13.61,0v5.85Z"/>
      <path d="M74.1,34.2c.15.02.15.46,0,.52l-2.12.02c-.09,0-.17-.08-.17-.17v-3.63c0-.12.12-.2.25-.15.12.05.34.2.34.36l.02,2.9c0,.23,1.12.07,1.67.15Z"/>
      <path d="M70.74,50.55c-.08.04-.21,0-.21-.08v-3.77c.18-.1.38-.08.55-.02.03,1.29.17-.27,1.44-.07.04.19.04.38,0,.58-.3.01-.6.02-.85.2-.31.22-.51.57-.52.96l-.03,1.68c0,.23-.17.42-.38.52Z"/>
      <path d="M42.66,50.17c0,.27-.55.53-.55.3v-3.77c.19-.1.38-.08.55-.01.03,1.29.18-.27,1.44-.07.03.18.05.36,0,.54-.03.13-.91-.15-1.28.77-.09.22-.14.46-.14.71l-.03,1.53Z"/>
      <path d="M76.95,49.93c0,.51-.4.65-.5.62-.05-.02-.11-.07-.11-.16v-3.65c.01-.12.6-.16.6.03v3.17Z"/>
      <path d="M77.06,45.1c.12.23-.01.44-.2.56-.2.12-.44.04-.57-.16s-.07-.45.13-.6c.21-.17.52-.05.65.2Z"/>
    </g>
  </g>
</svg>